<svg width="88" height="101" viewBox="0 0 88 101" fill="none" xmlns="http://www.w3.org/2000/svg">
<mask id="path-1-inside-1_84_3117" fill="white">
<path fill-rule="evenodd" clip-rule="evenodd" d="M49.8041 5.69696C46.8681 0.371367 40.1707 -1.56574 34.8451 1.3703L11.3496 14.3235C6.024 17.2596 4.08689 23.957 7.02293 29.2826L17.1166 47.5912L-7.94063e-05 75.7418L33.0502 76.4926L43.4205 95.303C46.3565 100.629 53.0539 102.566 58.3795 99.6297L81.875 86.6764C87.2006 83.7404 89.1377 77.043 86.2017 71.7174L49.8041 5.69696Z"/>
</mask>
<path fill-rule="evenodd" clip-rule="evenodd" d="M49.8041 5.69696C46.8681 0.371367 40.1707 -1.56574 34.8451 1.3703L11.3496 14.3235C6.024 17.2596 4.08689 23.957 7.02293 29.2826L17.1166 47.5912L-7.94063e-05 75.7418L33.0502 76.4926L43.4205 95.303C46.3565 100.629 53.0539 102.566 58.3795 99.6297L81.875 86.6764C87.2006 83.7404 89.1377 77.043 86.2017 71.7174L49.8041 5.69696Z" fill="white"/>
<path d="M34.8451 1.3703L34.3618 0.493674L34.3618 0.493675L34.8451 1.3703ZM49.8041 5.69696L48.9275 6.18025L48.9275 6.18025L49.8041 5.69696ZM11.3496 14.3235L11.8329 15.2002L11.3496 14.3235ZM7.02293 29.2826L7.89955 28.7993L7.02293 29.2826ZM17.1166 47.5912L17.972 48.1113L18.2732 47.6158L17.9933 47.1079L17.1166 47.5912ZM-7.94063e-05 75.7418L-0.855394 75.2217L-1.75618 76.7032L-0.0228133 76.7425L-7.94063e-05 75.7418ZM33.0502 76.4926L33.9268 76.0093L33.6487 75.5049L33.0729 75.4918L33.0502 76.4926ZM43.4205 95.303L42.5439 95.7863L43.4205 95.303ZM58.3795 99.6297L57.8962 98.753L58.3795 99.6297ZM81.875 86.6764L82.3583 87.5531L82.3583 87.5531L81.875 86.6764ZM86.2017 71.7174L85.325 72.2007L86.2017 71.7174ZM35.3284 2.24692C40.1698 -0.422209 46.2583 1.3388 48.9275 6.18025L50.6807 5.21367C47.4778 -0.596068 40.1715 -2.70928 34.3618 0.493674L35.3284 2.24692ZM11.8329 15.2002L35.3284 2.24692L34.3618 0.493675L10.8663 13.4469L11.8329 15.2002ZM7.89955 28.7993C5.23043 23.9578 6.99143 17.8693 11.8329 15.2002L10.8663 13.4469C5.05657 16.6499 2.94336 23.9561 6.14631 29.7658L7.89955 28.7993ZM17.9933 47.1079L7.89955 28.7993L6.14631 29.7658L16.24 48.0745L17.9933 47.1079ZM0.855232 76.2618L17.972 48.1113L16.2613 47.0712L-0.855394 75.2217L0.855232 76.2618ZM33.0729 75.4918L0.0226517 74.741L-0.0228133 76.7425L33.0274 77.4933L33.0729 75.4918ZM44.2971 94.8197L33.9268 76.0093L32.1736 76.9759L42.5439 95.7863L44.2971 94.8197ZM57.8962 98.753C53.0548 101.422 46.9663 99.6612 44.2971 94.8197L42.5439 95.7863C45.7468 101.596 53.0531 103.709 58.8628 100.506L57.8962 98.753ZM81.3917 85.7998L57.8962 98.753L58.8628 100.506L82.3583 87.5531L81.3917 85.7998ZM85.325 72.2007C87.9942 77.0422 86.2332 83.1307 81.3917 85.7998L82.3583 87.5531C88.168 84.3501 90.2812 77.0439 87.0783 71.2341L85.325 72.2007ZM48.9275 6.18025L85.325 72.2007L87.0783 71.2341L50.6807 5.21367L48.9275 6.18025Z" fill="#2D96D7" mask="url(#path-1-inside-1_84_3117)"/>
</svg>
