<svg width="91" height="98" viewBox="0 0 91 98" fill="none" xmlns="http://www.w3.org/2000/svg">
<mask id="path-1-inside-1_84_3114" fill="white">
<path fill-rule="evenodd" clip-rule="evenodd" d="M2.50005 62.7458C-1.36983 67.4794 -0.669629 74.4539 4.06398 78.3238L24.9478 95.3969C29.6814 99.2668 36.6559 98.5666 40.5258 93.833L53.8299 77.5595L86.5057 82.9905L74.8313 51.8707L88.5 35.1512C92.3699 30.4176 91.6697 23.4431 86.9361 19.5732L66.0523 2.50005C61.3187 -1.36983 54.3442 -0.669629 50.4743 4.06399L2.50005 62.7458Z"/>
</mask>
<path fill-rule="evenodd" clip-rule="evenodd" d="M2.50005 62.7458C-1.36983 67.4794 -0.669629 74.4539 4.06398 78.3238L24.9478 95.3969C29.6814 99.2668 36.6559 98.5666 40.5258 93.833L53.8299 77.5595L86.5057 82.9905L74.8313 51.8707L88.5 35.1512C92.3699 30.4176 91.6697 23.4431 86.9361 19.5732L66.0523 2.50005C61.3187 -1.36983 54.3442 -0.669629 50.4743 4.06399L2.50005 62.7458Z" fill="white"/>
<path d="M4.06398 78.3238L3.42698 79.103H3.42698L4.06398 78.3238ZM2.50005 62.7458L3.27923 63.3828H3.27923L2.50005 62.7458ZM24.9478 95.3969L25.5848 94.6178L24.9478 95.3969ZM40.5258 93.833L39.7466 93.196L40.5258 93.833ZM53.8299 77.5595L53.9949 76.5667L53.4198 76.4711L53.0507 76.9225L53.8299 77.5595ZM86.5057 82.9905L86.3406 83.9833L88.0602 84.2691L87.448 82.637L86.5057 82.9905ZM74.8313 51.8707L74.0521 51.2337L73.6856 51.6821L73.889 52.2242L74.8313 51.8707ZM88.5 35.1512L89.2792 35.7882L88.5 35.1512ZM86.9361 19.5732L86.2991 20.3524L86.9361 19.5732ZM66.0523 2.50005L66.6893 1.72088V1.72088L66.0523 2.50005ZM50.4743 4.06399L51.2535 4.70099L50.4743 4.06399ZM4.70099 77.5446C0.397702 74.0265 -0.238842 67.6861 3.27923 63.3828L1.72088 62.1088C-2.50082 67.2727 -1.73696 74.8813 3.42698 79.103L4.70099 77.5446ZM25.5848 94.6178L4.70099 77.5446L3.42698 79.103L24.3108 96.1761L25.5848 94.6178ZM39.7466 93.196C36.2285 97.4993 29.8881 98.1359 25.5848 94.6178L24.3108 96.1761C29.4747 100.398 37.0833 99.634 41.305 94.47L39.7466 93.196ZM53.0507 76.9225L39.7466 93.196L41.305 94.47L54.6091 78.1965L53.0507 76.9225ZM86.6707 81.9977L53.9949 76.5667L53.6649 78.5523L86.3406 83.9833L86.6707 81.9977ZM73.889 52.2242L85.5634 83.344L87.448 82.637L75.7736 51.5172L73.889 52.2242ZM87.7209 34.5142L74.0521 51.2337L75.6105 52.5078L89.2792 35.7882L87.7209 34.5142ZM86.2991 20.3524C90.6024 23.8705 91.2389 30.211 87.7209 34.5142L89.2792 35.7882C93.5009 30.6243 92.7371 23.0157 87.5731 18.794L86.2991 20.3524ZM65.4153 3.27923L86.2991 20.3524L87.5731 18.794L66.6893 1.72088L65.4153 3.27923ZM51.2535 4.70099C54.7716 0.397703 61.112 -0.238843 65.4153 3.27923L66.6893 1.72088C61.5254 -2.50082 53.9168 -1.73696 49.6951 3.42698L51.2535 4.70099ZM3.27923 63.3828L51.2535 4.70099L49.6951 3.42698L1.72088 62.1088L3.27923 63.3828Z" fill="#2D96D7" mask="url(#path-1-inside-1_84_3114)"/>
</svg>
