<svg width="97" height="97" viewBox="0 0 97 97" fill="none" xmlns="http://www.w3.org/2000/svg">
<path d="M31.1207 62.7467L38.1936 50.3186C37.5873 50.6554 36.88 50.8911 36.0717 51.0258C35.2634 51.1606 34.455 51.2279 33.6467 51.2279C31.3564 51.2279 29.3861 50.3251 27.7358 48.5194C26.0854 46.7137 25.2603 44.5516 25.2603 42.0331C25.2603 39.2713 26.1191 37.0316 27.8368 35.3139C29.5545 33.5962 31.7943 32.7373 34.5561 32.7373C37.1832 32.7373 39.3892 33.5962 41.1743 35.3139C42.9594 37.0316 43.8519 39.2713 43.8519 42.0331C43.8519 42.8415 43.7172 43.6666 43.4478 44.5087C43.1783 45.3507 42.8752 46.1085 42.5384 46.7821L32.8384 63.7571C32.7332 63.8986 32.6062 64.0181 32.4572 64.1158C32.3084 64.2135 32.1317 64.2623 31.9272 64.2623C31.5242 64.2623 31.2217 64.0939 31.0196 63.7571C30.8175 63.4203 30.8512 63.0835 31.1207 62.7467ZM59.0082 62.7467L66.0811 50.3186C65.4748 50.6554 64.7675 50.8911 63.9592 51.0258C63.1509 51.1606 62.3425 51.2279 61.5342 51.2279C59.2439 51.2279 57.2736 50.3251 55.6233 48.5194C53.9729 46.7137 53.1478 44.5516 53.1478 42.0331C53.1478 39.204 54.0066 36.9474 55.7243 35.2633C57.442 33.5793 59.6818 32.7373 62.4436 32.7373C65.0707 32.7373 67.2767 33.5962 69.0618 35.3139C70.8469 37.0316 71.7394 39.2713 71.7394 42.0331C71.7394 42.8415 71.6215 43.6666 71.3858 44.5087C71.15 45.3507 70.8637 46.1085 70.5269 46.7821L60.7259 63.7571C60.6207 63.8986 60.4937 64.0181 60.3448 64.1158C60.1959 64.2135 60.0192 64.2623 59.8147 64.2623C59.4117 64.2623 59.1092 64.0939 58.9071 63.7571C58.705 63.4203 58.7387 63.0835 59.0082 62.7467Z" fill="#E80D55" fill-opacity="0.5"/>
</svg>
