<?xml version="1.0" standalone="no"?>
<!DOCTYPE svg PUBLIC "-//W3C//DTD SVG 20010904//EN"
 "http://www.w3.org/TR/2001/REC-SVG-20010904/DTD/svg10.dtd">
<svg version="1.0" xmlns="http://www.w3.org/2000/svg"
 width="300.000000pt" height="233.000000pt" viewBox="0 0 300.000000 233.000000"
 preserveAspectRatio="xMidYMid meet">
<metadata>
Created by potrace 1.10, written by Peter Selinger 2001-2011
</metadata>
<g transform="translate(0.000000,233.000000) scale(0.100000,-0.100000)"
fill="#ffffff" stroke="none">
<path d="M842 2319 c-221 -33 -405 -194 -479 -417 l-28 -87 0 -640 c0 -577 2
-647 18 -708 26 -104 55 -163 115 -236 103 -126 234 -200 392 -221 58 -8 280
-10 695 -8 674 4 660 3 789 70 87 46 216 177 254 259 70 151 67 116 67 824 0
710 0 705 -68 844 -47 97 -169 217 -267 264 -41 20 -95 41 -120 48 -56 15
-1271 22 -1368 8z m1381 -221 c81 -38 129 -79 176 -149 72 -108 71 -93 71
-784 0 -688 1 -674 -69 -782 -21 -32 -52 -71 -71 -86 -54 -46 -144 -86 -217
-97 -43 -7 -280 -9 -658 -7 -581 3 -591 3 -646 25 -131 52 -221 146 -259 270
-19 64 -20 93 -19 682 1 602 1 616 22 680 40 122 137 219 259 261 50 17 94 18
703 16 l650 -2 58 -27z"/>
<path d="M2100 1932 c-81 -36 -108 -120 -62 -194 71 -115 260 -45 239 89 -13
80 -108 136 -177 105z"/>
<path d="M1363 1726 c-295 -72 -492 -382 -429 -676 39 -185 152 -327 324 -407
91 -43 103 -46 202 -50 131 -6 202 7 299 54 203 100 332 322 318 548 -12 211
-134 395 -319 483 -45 22 -107 45 -136 51 -69 14 -193 13 -259 -3z m303 -195
c212 -99 299 -340 196 -548 -33 -68 -125 -156 -199 -191 -52 -24 -70 -27 -163
-26 -95 0 -111 3 -163 29 -85 41 -157 111 -198 191 -33 65 -34 72 -34 178 0
106 2 114 34 178 54 108 163 195 275 218 73 16 183 3 252 -29z"/>
</g>
</svg>
