<?xml version='1.0' encoding='utf-8'?>
<svg xmlns="http://www.w3.org/2000/svg" version="1.1" width="841px" height="600px" viewBox="140 802 841 600"> <g id="layer1"> <g style="fill:rgb(4,27,31); fill-opacity:1.0; stroke-linejoin: miter"> <path d="M139.999,801.52844C139.87418,801.52844,139.75449,801.578,139.66623,801.66626C139.57797,801.7545,139.52838,801.8742,139.52838,801.999L139.52939,1402.0C139.52939,1402.2599,139.7401,1402.4706,140.0,1402.4706L981.001,1402.4716C981.1258,1402.4716,981.2455,1402.422,981.33374,1402.3337C981.422,1402.2455,981.47156,1402.1257,981.47156,1402.001L981.4706,802.0C981.4706,801.7401,981.2599,801.5294,981.0,801.5294L139.999,801.52844 Z"/> </g> <g style="fill:rgb(255,36,0); fill-opacity:1.0; stroke-linejoin: miter"> <path d="M517.7671,1057.4996L627.3268,1055.5824L542.6079,1075.6696 Z"/> </g> <g style="fill:rgb(255,171,157); fill-opacity:1.0; stroke-linejoin: miter"> <path d="M627.3268,1055.5824L542.6079,1075.6696L547.5061,1104.1165 Z"/> </g> <g style="fill:rgb(255,36,0); fill-opacity:1.0; stroke-linejoin: miter"> <path d="M627.3268,1055.5824L556.0926,1085.0565L570.7825,1123.9407 Z"/> </g> <g style="fill:rgb(190,58,36); fill-opacity:1.0; stroke-linejoin: miter"> <path d="M547.5061,1104.1165L556.0926,1085.0565L560.34485,1096.3046 Z"/> </g> <g style="fill:rgb(0,0,0); fill-opacity:1.0; stroke-linejoin: miter"> <path d="M538.53174,1106.2205C538.53174,1106.2205,537.9651,1106.5427,536.91406,1107.0952 Z"/> </g> <g style="fill:rgb(0,0,0); fill-opacity:1.0; stroke-linejoin: miter"> <path d="M572.9264,1083.2521Q572.45154,1084.3344,572.35803,1085.449Q572.2838,1086.4922,572.6638,1086.708Q572.82153,1086.8108,573.0956,1086.8452Q575.0652,1086.9403,576.1046,1087.1715Q576.46924,1087.2522,576.68616,1087.3447Q576.787,1087.3761,577.28,1087.6597L577.5032,1087.7571Q577.7241,1087.8406,578.0498,1087.8982Q579.01135,1088.0531,580.08997,1088.0016Q582.12,1087.9237,581.37573,1086.6969Q581.1681,1086.3756,580.8861,1086.2537Q580.77637,1086.2034,580.60864,1086.166Q579.78357,1086.0531,579.583,1085.965Q579.1853,1085.8275,578.8485,1085.5549Q578.20593,1085.0771,576.8262,1083.0336L572.94446,1083.2512 Z"/> </g> <g style="fill:rgb(0,0,0); fill-opacity:1.0; stroke-linejoin: miter"> <path d="M561.72437,1083.4714L558.0316,1083.9551Q557.75037,1085.6606,557.8158,1086.5328Q557.93036,1088.3463,559.0309,1088.7476Q559.64905,1089.0325,561.3783,1089.0863Q562.7135,1089.0664,563.1151,1088.7487Q563.3872,1088.5486,563.2739,1088.1498Q563.219,1087.942,563.0671,1087.65Q562.37256,1086.4481,562.3363,1086.3378Q562.1727,1086.0043,562.0626,1085.6729Q561.8063,1084.945,561.7245,1083.4728 Z"/> </g> <g style="fill:rgb(255,36,0); fill-opacity:1.0; stroke-linejoin: miter"> <path d="M597.2473,1073.4069L596.00903,1071.2333L594.77075,1069.0596Q575.7389,1076.9414,556.7067,1084.8235Q559.1459,1091.3284,561.5851,1097.8335Q576.7446,1093.4261,591.9042,1089.0192L597.2473,1073.4069 Z"/> </g> <g> <g style="fill:rgb(255,255,255); fill-opacity:1.0; stroke-linejoin: miter"> <path d="M355.11,1027.3317L464.66962,1025.4146L379.95078,1045.5016 Z"/> </g> <g style="fill:rgb(220,229,235); fill-opacity:1.0; stroke-linejoin: miter"> <path d="M464.66962,1025.4146L379.95078,1045.5016L384.84888,1073.9485 Z"/> </g> <g style="fill:rgb(255,255,255); fill-opacity:1.0; stroke-linejoin: miter"> <path d="M464.66962,1025.4146L393.43533,1054.8887L408.1253,1093.7728 Z"/> </g> <g style="fill:rgb(60,70,79); fill-opacity:1.0; stroke-linejoin: miter"> <path d="M384.84888,1073.9485L393.43533,1054.8887L397.6875,1066.1366 Z"/> </g> <g style="fill:rgb(0,0,0); fill-opacity:1.0; stroke-linejoin: miter"> <path d="M375.87457,1076.0529C375.87457,1076.0529,375.30792,1076.375,374.257,1076.9276 Z"/> </g> <g style="fill:rgb(0,0,0); fill-opacity:1.0; stroke-linejoin: miter"> <path d="M410.26923,1053.0842Q409.7944,1054.1666,409.70087,1055.2811Q409.62662,1056.3243,410.0065,1056.5403Q410.1643,1056.643,410.43826,1056.6775Q412.40802,1056.7725,413.44736,1057.0039Q413.81204,1057.0845,414.0289,1057.177Q414.12973,1057.2085,414.6228,1057.492L414.8459,1057.5894Q415.06705,1057.673,415.3925,1057.7302Q416.35413,1057.8853,417.43268,1057.8339Q419.46274,1057.7557,418.7184,1056.5289Q418.51077,1056.2078,418.22882,1056.0857Q418.1191,1056.0353,417.95135,1055.9979Q417.12634,1055.8851,416.92575,1055.7969Q416.528,1055.6595,416.19122,1055.3871Q415.54865,1054.9092,414.169,1052.8657L410.28714,1053.0835 Z"/> </g> <g style="fill:rgb(0,0,0); fill-opacity:1.0; stroke-linejoin: miter"> <path d="M399.06714,1053.3033L395.37433,1053.7871Q395.09314,1055.4927,395.15854,1056.3647Q395.27304,1058.1785,396.37357,1058.5797Q396.99182,1058.8646,398.72113,1058.9185Q400.05637,1058.8987,400.4579,1058.5808Q400.73007,1058.3807,400.61673,1057.9819Q400.56183,1057.7743,400.40994,1057.4823Q399.7153,1056.2802,399.6791,1056.17Q399.5156,1055.8364,399.4055,1055.505Q399.14908,1054.7772,399.06726,1053.3048 Z"/> </g> <g style="fill:rgb(255,255,255); fill-opacity:1.0; stroke-linejoin: miter"> <path d="M434.5901,1043.239L433.35184,1041.0653L432.11356,1038.8917Q413.08167,1046.7736,394.04956,1054.6555Q396.48865,1061.1604,398.92792,1067.6656Q414.08746,1063.2584,429.24692,1058.8513L434.5901,1043.239 Z"/> </g> </g> <g> <g style="fill:rgb(255,255,255); fill-opacity:1.0; stroke-linejoin: miter"> <path d="M418.06207,1105.8451L527.6217,1103.928L442.9029,1124.0151 Z"/> </g> <g style="fill:rgb(220,229,235); fill-opacity:1.0; stroke-linejoin: miter"> <path d="M527.6217,1103.928L442.9029,1124.0151L447.801,1152.4623 Z"/> </g> <g style="fill:rgb(255,255,255); fill-opacity:1.0; stroke-linejoin: miter"> <path d="M527.6217,1103.928L456.38757,1133.4023L471.07742,1172.2866 Z"/> </g> <g style="fill:rgb(60,70,79); fill-opacity:1.0; stroke-linejoin: miter"> <path d="M447.801,1152.4623L456.38757,1133.4023L460.63962,1144.65 Z"/> </g> <g style="fill:rgb(0,0,0); fill-opacity:1.0; stroke-linejoin: miter"> <path d="M438.82672,1154.5663C438.82672,1154.5663,438.26007,1154.8888,437.20914,1155.4412 Z"/> </g> <g style="fill:rgb(0,0,0); fill-opacity:1.0; stroke-linejoin: miter"> <path d="M473.22137,1131.5977Q472.74652,1132.6802,472.65298,1133.7948Q472.5787,1134.838,472.95868,1135.0538Q473.1164,1135.1566,473.3904,1135.191Q475.3602,1135.2861,476.3995,1135.5175Q476.7642,1135.5981,476.98108,1135.6906Q477.08182,1135.7219,477.57498,1136.0056L477.79807,1136.1029Q478.01913,1136.1865,478.3446,1136.2439Q479.30618,1136.3987,480.38474,1136.3473Q482.41483,1136.2694,481.67056,1135.0425Q481.46286,1134.7213,481.18094,1134.5992Q481.07126,1134.5488,480.9035,1134.5115Q480.0785,1134.3988,479.8778,1134.3104Q479.4801,1134.1731,479.14337,1133.9005Q478.50085,1133.4229,477.1212,1131.3793L473.23923,1131.5969 Z"/> </g> <g style="fill:rgb(0,0,0); fill-opacity:1.0; stroke-linejoin: miter"> <path d="M462.0193,1131.817L458.32657,1132.3007Q458.04538,1134.0065,458.11078,1134.8785Q458.22522,1136.6921,459.32578,1137.0934Q459.94394,1137.3782,461.67316,1137.4319Q463.00848,1137.4122,463.41,1137.0945Q463.6822,1136.8942,463.56882,1136.4956Q463.51392,1136.2878,463.36203,1135.9958Q462.6674,1134.7937,462.6312,1134.6835Q462.46768,1134.35,462.3576,1134.0186Q462.10117,1133.2906,462.01938,1131.8185 Z"/> </g> <g style="fill:rgb(255,255,255); fill-opacity:1.0; stroke-linejoin: miter"> <path d="M497.5422,1121.7523L496.30396,1119.5789L495.06564,1117.4052Q476.0338,1125.2871,457.0018,1133.1691Q459.4408,1139.6738,461.87997,1146.1791Q477.0395,1141.7721,492.19904,1137.3649L497.5422,1121.7523 Z"/> </g> </g> <g> <g style="fill:rgb(255,255,255); fill-opacity:1.0; stroke-linejoin: miter"> <path d="M484.84732,1187.0525L594.407,1185.1355L509.6881,1205.2224 Z"/> </g> <g style="fill:rgb(220,229,235); fill-opacity:1.0; stroke-linejoin: miter"> <path d="M594.407,1185.1355L509.6881,1205.2224L514.5862,1233.6693 Z"/> </g> <g style="fill:rgb(255,255,255); fill-opacity:1.0; stroke-linejoin: miter"> <path d="M594.407,1185.1355L523.17267,1214.6096L537.8626,1253.494 Z"/> </g> <g style="fill:rgb(60,70,79); fill-opacity:1.0; stroke-linejoin: miter"> <path d="M514.5862,1233.6693L523.17267,1214.6096L527.4248,1225.8572 Z"/> </g> <g style="fill:rgb(0,0,0); fill-opacity:1.0; stroke-linejoin: miter"> <path d="M505.61185,1235.7734C505.61185,1235.7734,505.04514,1236.0958,503.99432,1236.6484 Z"/> </g> <g style="fill:rgb(0,0,0); fill-opacity:1.0; stroke-linejoin: miter"> <path d="M540.0066,1212.805Q539.5317,1213.8875,539.43823,1215.002Q539.3639,1216.0454,539.74384,1216.2611Q539.9016,1216.3639,540.17566,1216.3983Q542.1454,1216.4934,543.1847,1216.7246Q543.54944,1216.8053,543.76624,1216.898Q543.86707,1216.9292,544.36017,1217.2128L544.58325,1217.3103Q544.8043,1217.3938,545.1298,1217.4512Q546.0914,1217.6061,547.1699,1217.5547Q549.2,1217.4768,548.4558,1216.2499Q548.24805,1215.9287,547.9662,1215.8066Q547.85645,1215.7561,547.6887,1215.7189Q546.8638,1215.6061,546.66296,1215.5178Q546.2654,1215.3805,545.92847,1215.1079Q545.286,1214.63,543.9064,1212.5867L540.0244,1212.8042 Z"/> </g> <g style="fill:rgb(0,0,0); fill-opacity:1.0; stroke-linejoin: miter"> <path d="M528.80444,1213.0243L525.1118,1213.5078Q524.83057,1215.2135,524.89594,1216.0858Q525.0104,1217.8993,526.11096,1218.3005Q526.7292,1218.5856,528.4584,1218.6393Q529.7937,1218.6195,530.1952,1218.3019Q530.4674,1218.1014,530.354,1217.7029Q530.299,1217.4949,530.14734,1217.203Q529.45264,1216.001,529.4164,1215.8906Q529.2529,1215.5571,529.1428,1215.2258Q528.88635,1214.4979,528.8047,1213.0256 Z"/> </g> <g style="fill:rgb(255,255,255); fill-opacity:1.0; stroke-linejoin: miter"> <path d="M564.3275,1202.9597L563.08923,1200.7863L561.8508,1198.6125Q542.819,1206.4945,523.787,1214.3765Q526.22595,1220.8811,528.66516,1227.3862Q543.8247,1222.9794,558.98425,1218.5723L564.3275,1202.9597 Z"/> </g> </g> <g> <g style="fill:rgb(255,255,255); fill-opacity:1.0; stroke-linejoin: miter"> <path d="M219.82259,1012.5916L329.38217,1010.6744L244.66338,1030.7615 Z"/> </g> <g style="fill:rgb(220,229,235); fill-opacity:1.0; stroke-linejoin: miter"> <path d="M329.38217,1010.6744L244.66338,1030.7615L249.56152,1059.2083 Z"/> </g> <g style="fill:rgb(255,255,255); fill-opacity:1.0; stroke-linejoin: miter"> <path d="M329.38217,1010.6744L258.14804,1040.1484L272.83795,1079.0326 Z"/> </g> <g style="fill:rgb(60,70,79); fill-opacity:1.0; stroke-linejoin: miter"> <path d="M249.56152,1059.2083L258.14804,1040.1484L262.4002,1051.3966 Z"/> </g> <g style="fill:rgb(0,0,0); fill-opacity:1.0; stroke-linejoin: miter"> <path d="M240.58723,1061.3125C240.58723,1061.3125,240.02055,1061.6349,238.96965,1062.1875 Z"/> </g> <g style="fill:rgb(0,0,0); fill-opacity:1.0; stroke-linejoin: miter"> <path d="M274.9818,1038.3439Q274.50702,1039.4264,274.4135,1040.5409Q274.33917,1041.5841,274.71915,1041.8Q274.8769,1041.9028,275.15094,1041.9373Q277.12067,1042.0323,278.16,1042.2637Q278.52466,1042.3441,278.74152,1042.4368Q278.84238,1042.468,279.33545,1042.7517L279.55853,1042.849Q279.77966,1042.9327,280.1051,1042.9901Q281.0667,1043.1449,282.14526,1043.0936Q284.17535,1043.0156,283.431,1041.7888Q283.2234,1041.4677,282.9414,1041.3455Q282.8317,1041.295,282.664,1041.2577Q281.839,1041.1448,281.6383,1041.0568Q281.24066,1040.9192,280.90384,1040.6467Q280.26123,1040.169,278.88165,1038.1254L274.99976,1038.3431 Z"/> </g> <g style="fill:rgb(0,0,0); fill-opacity:1.0; stroke-linejoin: miter"> <path d="M263.7798,1038.5632L260.08704,1039.0469Q259.80588,1040.7526,259.87128,1041.6248Q259.98575,1043.4382,261.0863,1043.8395Q261.7045,1044.1246,263.43378,1044.1782Q264.769,1044.1584,265.17056,1043.8407Q265.44272,1043.6405,265.32935,1043.242Q265.27444,1043.034,265.12262,1042.7421Q264.42795,1041.54,264.39172,1041.4298Q264.2282,1041.0962,264.1181,1040.7648Q263.8617,1040.037,263.7799,1038.5647 Z"/> </g> <g style="fill:rgb(255,255,255); fill-opacity:1.0; stroke-linejoin: miter"> <path d="M299.30267,1028.4987L298.0644,1026.3251L296.8261,1024.1512Q277.79428,1032.0333,258.76227,1039.9154Q261.20135,1046.4204,263.64056,1052.9255Q278.80005,1048.5183,293.95953,1044.1112L299.30267,1028.4987 Z"/> </g> </g> <g> <g style="fill:rgb(255,255,255); fill-opacity:1.0; stroke-linejoin: miter"> <path d="M274.57465,1100.6381L384.13412,1098.721L299.41537,1118.808 Z"/> </g> <g style="fill:rgb(220,229,235); fill-opacity:1.0; stroke-linejoin: miter"> <path d="M384.13412,1098.721L299.41537,1118.808L304.31354,1147.2548 Z"/> </g> <g style="fill:rgb(255,255,255); fill-opacity:1.0; stroke-linejoin: miter"> <path d="M384.13412,1098.721L312.90002,1128.195L327.5899,1167.0792 Z"/> </g> <g style="fill:rgb(60,70,79); fill-opacity:1.0; stroke-linejoin: miter"> <path d="M304.31354,1147.2548L312.90002,1128.195L317.15213,1139.4432 Z"/> </g> <g style="fill:rgb(0,0,0); fill-opacity:1.0; stroke-linejoin: miter"> <path d="M295.33923,1149.359C295.33923,1149.359,294.77252,1149.6813,293.72165,1150.2339 Z"/> </g> <g style="fill:rgb(0,0,0); fill-opacity:1.0; stroke-linejoin: miter"> <path d="M329.73376,1126.3904Q329.25894,1127.4728,329.16544,1128.5875Q329.0911,1129.6309,329.4711,1129.8467Q329.62888,1129.9492,329.90283,1129.9836Q331.8726,1130.0787,332.91196,1130.31Q333.27664,1130.3907,333.4935,1130.4833Q333.5943,1130.5148,334.08734,1130.7983L334.31046,1130.8955Q334.53162,1130.9794,334.85706,1131.0366Q335.81863,1131.1915,336.8972,1131.1403Q338.92728,1131.0621,338.18298,1129.8352Q337.9753,1129.5142,337.69336,1129.3921Q337.58368,1129.3417,337.4159,1129.3043Q336.5909,1129.1915,336.3903,1129.1033Q335.99258,1128.9658,335.6558,1128.6932Q335.01324,1128.2155,333.6336,1126.172L329.7517,1126.3896 Z"/> </g> <g style="fill:rgb(0,0,0); fill-opacity:1.0; stroke-linejoin: miter"> <path d="M318.5317,1126.6097L314.83902,1127.0934Q314.55786,1128.799,314.62323,1129.6711Q314.73776,1131.4846,315.83826,1131.8861Q316.45648,1132.171,318.18573,1132.2246Q319.52094,1132.205,319.9225,1131.8871Q320.1947,1131.6869,320.08127,1131.2882Q320.02634,1131.0806,319.8745,1130.7885Q319.17984,1129.5865,319.14368,1129.4762Q318.98013,1129.1428,318.87006,1128.8113Q318.61365,1128.0834,318.5319,1126.6111 Z"/> </g> <g style="fill:rgb(255,255,255); fill-opacity:1.0; stroke-linejoin: miter"> <path d="M354.05453,1116.5453L352.81635,1114.3718L351.5781,1112.1979Q332.54626,1120.0801,313.51422,1127.9617Q315.95328,1134.4668,318.39246,1140.9719Q333.55203,1136.5648,348.7115,1132.1577L354.05453,1116.5453 Z"/> </g> </g> <g> <g style="fill:rgb(255,255,255); fill-opacity:1.0; stroke-linejoin: miter"> <path d="M336.77008,1186.6862L446.32965,1184.7693L361.61084,1204.8562 Z"/> </g> <g style="fill:rgb(220,229,235); fill-opacity:1.0; stroke-linejoin: miter"> <path d="M446.32965,1184.7693L361.61084,1204.8562L366.50894,1233.303 Z"/> </g> <g style="fill:rgb(255,255,255); fill-opacity:1.0; stroke-linejoin: miter"> <path d="M446.32965,1184.7693L375.09546,1214.243L389.78537,1253.1273 Z"/> </g> <g style="fill:rgb(60,70,79); fill-opacity:1.0; stroke-linejoin: miter"> <path d="M366.50894,1233.303L375.09546,1214.243L379.34756,1225.491 Z"/> </g> <g style="fill:rgb(0,0,0); fill-opacity:1.0; stroke-linejoin: miter"> <path d="M357.53467,1235.4073C357.53467,1235.4073,356.96802,1235.7295,355.91708,1236.2823 Z"/> </g> <g style="fill:rgb(0,0,0); fill-opacity:1.0; stroke-linejoin: miter"> <path d="M391.92923,1212.4388Q391.45447,1213.5211,391.36093,1214.6359Q391.28662,1215.6788,391.66656,1215.8948Q391.82434,1215.9976,392.09833,1216.032Q394.06808,1216.127,395.10745,1216.3584Q395.47208,1216.439,395.68893,1216.5315Q395.78976,1216.5627,396.28287,1216.8464L396.50598,1216.9438Q396.72708,1217.0275,397.05255,1217.0846Q398.0141,1217.2395,399.09268,1217.1881Q401.12274,1217.1102,400.3784,1215.8837Q400.1708,1215.5624,399.88885,1215.4403Q399.77914,1215.3898,399.6114,1215.3525Q398.7864,1215.2397,398.5858,1215.1516Q398.18805,1215.014,397.85126,1214.7416Q397.20874,1214.2638,395.82907,1212.2203L391.94717,1212.438 Z"/> </g> <g style="fill:rgb(0,0,0); fill-opacity:1.0; stroke-linejoin: miter"> <path d="M380.7272,1212.6578L377.0345,1213.1416Q376.75323,1214.847,376.81866,1215.7194Q376.93314,1217.5328,378.0337,1217.9342Q378.65192,1218.219,380.3811,1218.2727Q381.71637,1218.2528,382.11792,1217.9352Q382.39008,1217.735,382.2767,1217.336Q382.22174,1217.1284,382.06992,1216.8363Q381.37527,1215.6345,381.33908,1215.524Q381.17557,1215.1906,381.06546,1214.8593Q380.80905,1214.1316,380.72733,1212.6593 Z"/> </g> <g style="fill:rgb(255,255,255); fill-opacity:1.0; stroke-linejoin: miter"> <path d="M416.25006,1202.5934L415.01184,1200.4199L413.77353,1198.2461Q394.7417,1206.1282,375.7097,1214.01Q378.1487,1220.5149,380.5879,1227.0199Q395.74747,1222.6128,410.90698,1218.2057L416.25006,1202.5934 Z"/> </g> </g> <g> <g style="fill:rgb(255,255,255); fill-opacity:1.0; stroke-linejoin: miter"> <path d="M410.89078,1273.5221L520.4503,1271.6052L435.73145,1291.6924 Z"/> </g> <g style="fill:rgb(220,229,235); fill-opacity:1.0; stroke-linejoin: miter"> <path d="M520.4503,1271.6052L435.73145,1291.6924L440.6296,1320.1392 Z"/> </g> <g style="fill:rgb(255,255,255); fill-opacity:1.0; stroke-linejoin: miter"> <path d="M520.4503,1271.6052L449.2162,1301.0795L463.9061,1339.9635 Z"/> </g> <g style="fill:rgb(60,70,79); fill-opacity:1.0; stroke-linejoin: miter"> <path d="M440.6296,1320.1392L449.2162,1301.0795L453.46826,1312.3274 Z"/> </g> <g style="fill:rgb(0,0,0); fill-opacity:1.0; stroke-linejoin: miter"> <path d="M431.65536,1322.2434C431.65536,1322.2434,431.08862,1322.5657,430.0377,1323.1182 Z"/> </g> <g style="fill:rgb(0,0,0); fill-opacity:1.0; stroke-linejoin: miter"> <path d="M466.04993,1299.2749Q465.57513,1300.3572,465.48166,1301.4718Q465.40723,1302.5151,465.78717,1302.7311Q465.94495,1302.8337,466.21896,1302.8682Q468.18875,1302.9631,469.22812,1303.1945Q469.59277,1303.2751,469.8097,1303.3678Q469.91043,1303.399,470.40353,1303.6826L470.6266,1303.78Q470.84775,1303.8635,471.1732,1303.9209Q472.13474,1304.0757,473.21326,1304.0244Q475.2434,1303.9463,474.4991,1302.7195Q474.2914,1302.3983,474.00952,1302.2762Q473.89978,1302.2258,473.732,1302.1885Q472.907,1302.0758,472.7064,1301.9874Q472.3087,1301.85,471.9719,1301.5778Q471.32938,1301.0999,469.9498,1299.0564L466.06787,1299.274 Z"/> </g> <g style="fill:rgb(0,0,0); fill-opacity:1.0; stroke-linejoin: miter"> <path d="M454.84796,1299.4941L451.15512,1299.9778Q450.87396,1301.6833,450.93942,1302.5557Q451.0539,1304.3691,452.15448,1304.7704Q452.77264,1305.0554,454.5019,1305.1093Q455.8372,1305.0894,456.23868,1304.7717Q456.5109,1304.5715,456.3975,1304.1727Q456.3426,1303.9651,456.19073,1303.673Q455.49612,1302.471,455.45984,1302.3607Q455.29645,1302.0272,455.18625,1301.6958Q454.92984,1300.968,454.84814,1299.4956 Z"/> </g> <g style="fill:rgb(255,255,255); fill-opacity:1.0; stroke-linejoin: miter"> <path d="M490.3707,1289.4296L489.13254,1287.2561L487.8942,1285.082Q468.86234,1292.9642,449.83035,1300.8463Q452.26947,1307.3512,454.70868,1313.8563Q469.86813,1309.4491,485.0276,1305.042L490.3707,1289.4296 Z"/> </g> </g> <g style="fill:rgb(255,255,255); fill-opacity:1.0; stroke-linejoin: miter"> <path d="M938.79694,992.32574L934.0212,991.63873L929.24567,990.95135Q930.7369,992.23444,932.2277,993.5173Q931.5345,995.34247,930.8415,997.1679L938.79694,992.32574"/> </g> <g style="fill:rgb(255,255,255); fill-opacity:1.0; stroke-linejoin: miter"> <path d="M934.82684,989.5994L934.71576,989.0372L934.6047,988.4749Q933.43646,991.0783,932.26825,993.6816Q934.3244,995.5301,936.3809,997.3787L934.82684,989.5994"/> </g> <g> <g style="fill:rgb(255,255,255); fill-opacity:1.0; stroke-linejoin: miter"> <path d="M511.40085,962.72424L506.62515,962.037L501.84964,961.34973Q503.34048,962.6327,504.8315,963.9159Q504.1384,965.7411,503.44553,967.5665L511.40085,962.72424"/> </g> <g style="fill:rgb(255,255,255); fill-opacity:1.0; stroke-linejoin: miter"> <path d="M507.43076,959.9977L507.31973,959.4354L507.20865,958.87317Q506.04025,961.4769,504.87204,964.0802Q506.92844,965.9286,508.98483,967.777L507.43076,959.9977"/> </g> </g> <g style="fill:rgb(255,255,255); fill-opacity:1.0; stroke-linejoin: miter"> <path d="M756.0573,1292.0203L751.28156,1291.3333L746.50616,1290.645Q747.9971,1291.9285,749.48816,1293.2117Q748.79517,1295.0371,748.1018,1296.8625L756.0573,1292.0203"/> </g> <g style="fill:rgb(255,255,255); fill-opacity:1.0; stroke-linejoin: miter"> <path d="M752.08734,1289.2935L751.9763,1288.7312L751.8652,1288.1692Q750.6969,1290.7727,749.5285,1293.3762Q751.58496,1295.2246,753.6414,1297.073L752.08734,1289.2935"/> </g> <g style="fill:rgb(255,255,255); fill-opacity:1.0; stroke-linejoin: miter"> <path d="M365.5542,949.014L360.77863,948.3267L356.00323,947.6397Q357.49414,948.92255,358.98517,950.2054Q358.292,952.03107,357.59906,953.8564L365.5542,949.014"/> </g> <g style="fill:rgb(255,255,255); fill-opacity:1.0; stroke-linejoin: miter"> <path d="M361.58435,946.28754L361.47327,945.7254L361.36212,945.163Q360.1939,947.7664,359.0255,950.37006Q361.08203,952.21844,363.1383,954.06696L361.58435,946.28754"/> </g> <g style="fill:rgb(255,255,255); fill-opacity:1.0; stroke-linejoin: miter"> <path d="M343.70532,982.2769L350.74115,983.2895L357.7771,984.30206Q355.5802,982.4118,353.38342,980.5214Q354.40472,977.8322,355.42584,975.1429L343.70532,982.2769"/> </g> <g style="fill:rgb(255,255,255); fill-opacity:1.0; stroke-linejoin: miter"> <path d="M349.55414,986.2939L349.71796,987.1225L349.8816,987.95087Q351.6029,984.1149,353.3241,980.27924Q350.29437,977.5561,347.2646,974.8328L349.55414,986.2939"/> </g> <g style="fill:rgb(255,255,255); fill-opacity:1.0; stroke-linejoin: miter"> <path d="M717.0041,1026.2373L724.04,1027.25L731.0758,1028.2625Q728.87915,1026.3723,726.6824,1024.4819Q727.70355,1021.7924,728.7247,1019.10333L717.0041,1026.2373"/> </g> <g style="fill:rgb(255,255,255); fill-opacity:1.0; stroke-linejoin: miter"> <path d="M722.8529,1030.2539L723.0166,1031.0825L723.1804,1031.9111Q724.9015,1028.0754,726.6227,1024.2397Q723.593,1021.5164,720.5633,1018.793L722.8529,1030.2539"/> </g> <g style="fill:rgb(255,255,255); fill-opacity:1.0; stroke-linejoin: miter"> <path d="M742.5172,1309.5576L746.9523,1311.4578L751.38715,1313.3579Q750.2792,1311.7322,749.171,1310.1074Q750.3129,1308.5237,751.45496,1306.94L742.5172,1309.5576"/> </g> <g style="fill:rgb(255,255,255); fill-opacity:1.0; stroke-linejoin: miter"> <path d="M745.64624,1313.2188L745.60815,1313.7908L745.5699,1314.3628Q747.37213,1312.1501,749.1745,1309.9377Q747.66656,1307.6204,746.1585,1305.3025L745.64624,1313.2188"/> </g> <g style="fill:rgb(255,255,255); fill-opacity:1.0; stroke-linejoin: miter"> <path d="M548.5476,1306.605L552.98254,1308.5046L557.4176,1310.4043Q556.30945,1308.779,555.2013,1307.154Q556.3433,1305.5701,557.4852,1303.9863L548.5476,1306.605"/> </g> <g style="fill:rgb(255,255,255); fill-opacity:1.0; stroke-linejoin: miter"> <path d="M551.6767,1310.2659L551.63837,1310.8374L551.6003,1311.4097Q553.40247,1309.197,555.20483,1306.9844Q553.6969,1304.667,552.1889,1302.3491L551.6767,1310.2659"/> </g> <g style="fill:rgb(255,255,255); fill-opacity:1.0; stroke-linejoin: miter"> <path d="M885.4135,1104.1753L889.84894,1106.0752L894.2836,1107.9751Q893.1757,1106.3499,892.06744,1104.7244Q893.2093,1103.1409,894.35126,1101.5571L885.4135,1104.1753"/> </g> <g style="fill:rgb(255,255,255); fill-opacity:1.0; stroke-linejoin: miter"> <path d="M888.5429,1107.8362L888.5047,1108.4082L888.4665,1108.9802Q890.2686,1106.7676,892.071,1104.5552Q890.56305,1102.2373,889.0551,1099.9199L888.5429,1107.8362"/> </g> <g style="fill:rgb(105,232,251); fill-opacity:0.5137255; stroke-linejoin: miter"> <path d="M276.9131,1249.166C277.3653,1247.4722,277.58008,1245.7249,277.55194,1243.9556C277.3824,1233.4932,268.73352,1225.1194,258.27112,1225.2891C253.91882,1225.3584,249.6919,1226.9387,246.36835,1229.7378C243.41272,1232.2266,241.2771,1235.5791,240.26874,1239.2786C233.25745,1238.7373,226.99976,1243.282,225.12677,1249.7981C224.06299,1249.5737,222.97784,1249.4692,221.88599,1249.4878C213.83447,1249.6179,207.38904,1256.2263,207.51898,1264.2786C207.64954,1272.3313,214.30505,1278.728,222.35669,1278.5984L273.33643,1277.7749C281.3886,1277.6445,287.83344,1271.0347,287.70312,1262.9829C287.59668,1256.3948,283.14587,1250.8354,276.9131,1249.166 Z"/> </g> <g style="fill:rgb(105,232,251); fill-opacity:0.50980395; stroke-linejoin: miter"> <path d="M644.9572,918.24615C644.7451,917.4589,644.6436,916.64667,644.6549,915.8238C644.7236,910.9587,648.73724,907.0562,653.6028,907.1248C655.62665,907.1529,657.59393,907.88385,659.14215,909.18195C660.5189,910.3366,661.51526,911.8936,661.98785,913.6126C665.24786,913.3542,668.1621,915.46173,669.03937,918.4898C669.53394,918.3842,670.0384,918.3348,670.54614,918.3422C674.29047,918.39496,677.2941,921.46185,677.2415,925.20624C677.1886,928.9511,674.09985,931.93207,670.35547,931.8797L646.6481,931.5461C642.9036,931.49335,639.90015,928.42584,639.9528,924.68146C639.996,921.618,642.06055,919.0284,644.9572,918.24615 Z"/> </g> <g style="fill:rgb(105,232,251); fill-opacity:0.50980395; stroke-linejoin: miter"> <path d="M927.10895,1277.9609C927.4074,1276.8433,927.549,1275.6907,927.5306,1274.5227C927.41864,1267.6196,921.71185,1262.095,914.8084,1262.2068C911.9367,1262.2524,909.1474,1263.2952,906.9545,1265.1418C905.00433,1266.7842,903.5953,1268.9963,902.9299,1271.4375C898.3035,1271.0808,894.1746,1274.0793,892.9388,1278.3787C892.2369,1278.2305,891.52094,1278.1619,890.8005,1278.1738C885.488,1278.2598,881.23505,1282.6204,881.32086,1287.9331C881.40704,1293.2463,885.79865,1297.4673,891.1115,1297.3818L924.7493,1296.8376C930.0623,1296.7512,934.31464,1292.3901,934.2286,1287.0771C934.1584,1282.7305,931.2215,1279.0625,927.10895,1277.9609 Z"/> </g> <g style="fill:rgb(105,232,251); fill-opacity:0.50980395; stroke-linejoin: miter"> <path d="M283.72443,883.92084C283.51233,883.13385,283.4109,882.3215,283.4223,881.4986C283.49097,876.6335,287.50464,872.73114,292.37,872.79974C294.39404,872.8277,296.3612,873.55853,297.90936,874.8569C299.2862,876.0114,300.28253,877.5683,300.75513,879.28754C304.0152,879.0289,306.9295,881.1364,307.8067,884.1646C308.30127,884.05927,308.8056,884.0097,309.31354,884.0169C313.05774,884.06964,316.06134,887.1368,316.00885,890.8809C315.9558,894.6258,312.86707,897.6071,309.12274,897.5544L285.4154,897.221C281.67102,897.168,278.66748,894.1005,278.7202,890.35626C278.76324,887.29266,280.82764,884.7033,283.72443,883.92084 Z"/> </g> <g style="fill:rgb(105,232,251); fill-opacity:0.50980395; stroke-linejoin: miter"> <path d="M700.1167,1140.0894C699.9046,1139.302,699.80316,1138.49,699.8144,1137.667C699.8831,1132.802,703.8968,1128.8997,708.76227,1128.9683C710.78613,1128.9963,712.7534,1129.7273,714.30164,1131.0254C715.6784,1132.1797,716.67474,1133.7368,717.1474,1135.4558C720.40735,1135.1975,723.3216,1137.3049,724.19885,1140.333C724.6935,1140.2275,725.19794,1140.178,725.7056,1140.1855C729.4498,1140.2383,732.4536,1143.3052,732.40106,1147.0496C732.3481,1150.7944,729.2592,1153.7754,725.51495,1153.7231L701.80756,1153.3894C698.0632,1153.3367,695.05975,1150.2693,695.1124,1146.5247C695.1556,1143.4612,697.22,1140.8723,700.1167,1140.0894 Z"/> </g> <g style="fill:rgb(186,12,12); fill-opacity:1.0; stroke-linejoin: miter"> <path d="M776.1674,974.8923L776.7194,989.3709Q780.5821,1033.1248,799.128,1059.3396Q817.8022,1085.5339,843.06586,1080.5527Q867.17413,1073.6025,881.5977,1039.9861Q886.21906,1029.1196,889.2048,1016.3083L891.71173,1003.138Q893.7747,989.54474,893.78253,974.7691Q893.1043,929.42694,876.47906,899.3359Q859.8538,869.2443,834.8631,868.1265Q809.8747,869.2967,793.3127,899.4229Q776.7504,929.54877,776.1674,974.8923"/> </g> <g style="fill:rgb(255,0,0); fill-opacity:1.0; stroke-linejoin: miter"> <path d="M775.44476,975.45416L775.9278,989.9682Q779.30084,1033.8279,795.47064,1060.1099Q811.752,1086.3708,833.7734,1081.3806Q854.7873,1074.4167,867.3554,1040.7205Q871.38226,1029.8286,873.9831,1016.986L876.16656,1003.78375Q877.96295,990.15814,877.96783,975.34686Q877.3704,929.8942,862.8743,899.7275Q848.3781,869.5606,826.59406,868.43646Q804.8123,869.60614,790.37946,899.8034Q775.9466,930.0003,775.44476,975.45416"/> </g> <g style="fill:rgb(255,255,255); fill-opacity:1.0; stroke-linejoin: miter"> <path d="M784.0004,975.8222L784.49054,987.8189Q785.826,1003.9255,789.14874,1017.14386Q793.737,1033.0352,795.2509,1035.3467Q797.6578,1040.873,800.56146,1045.6775Q806.4085,1055.2766,813.11334,1059.7649Q821.6822,1064.2568,823.6534,1063.6213Q827.3276,1063.949,831.21625,1062.9983Q833.2834,1063.0227,841.5694,1056.6133Q844.764,1053.6685,847.6171,1049.6353Q853.3232,1041.5688,857.66254,1029.1477Q867.32794,999.1058,865.3244,966.8299Q864.4251,950.758,861.3619,937.2017Q859.83026,930.42365,857.7575,924.2747Q857.02594,920.7371,850.388,907.38165Q839.3803,887.6767,823.9538,886.9847Q816.24884,887.4816,809.7414,892.7089Q806.4876,895.3234,803.53326,899.1198Q796.4095,909.6457,795.34393,913.16986Q790.33344,924.3107,787.5361,937.92426Q786.1374,944.7309,785.2918,952.15594Q784.5234,955.4825,784.0004,975.8222"/> </g> <g style="fill:rgb(255,0,0); fill-opacity:1.0; stroke-linejoin: miter"> <path d="M791.71576,975.5817L792.0247,985.3177Q793.3946,1001.0268,795.58673,1009.142Q797.78143,1017.20844,799.74603,1022.57074Q802.17474,1028.2075,804.6342,1032.3738Q810.43097,1041.4592,814.7126,1043.895Q821.8044,1048.5234,827.97845,1046.9307Q841.4816,1043.2393,849.4206,1023.6756Q851.071,1019.9537,852.75446,1013.96295Q856.2424,1000.2641,856.37994,997.41156Q858.09686,986.2369,857.9473,974.6867Q857.4659,944.75507,848.1949,924.9925Q838.57904,904.2182,824.78485,903.8083Q811.84576,904.0987,802.0224,923.294Q791.8499,945.2386,791.71576,975.5817"/> </g> <g style="fill:rgb(255,255,255); fill-opacity:1.0; stroke-linejoin: miter"> <path d="M800.9738,976.46295L801.418,983.4698Q802.41974,992.82367,804.5264,1000.5517Q807.8149,1011.7789,811.1584,1016.41437Q815.6767,1023.11664,818.3831,1024.7253Q824.0878,1028.1863,827.732,1027.2688Q833.5035,1025.6033,836.4312,1022.1672Q838.14276,1020.3912,839.63837,1018.05646Q840.52094,1017.238,843.6397,1009.7962Q845.8542,1004.5373,847.93304,992.0214Q849.0225,983.7968,848.66693,974.3099Q848.2099,964.7314,846.5479,956.63934Q845.71674,952.59296,844.5844,948.919Q844.2066,946.8492,840.5097,938.7319Q837.22076,932.1778,833.4285,928.54034Q831.53265,926.7215,829.5108,925.6319Q828.57855,924.63116,823.16254,924.0036Q821.09235,924.1158,819.1547,924.89655Q818.1032,924.8692,813.63837,928.7448Q810.159,932.3139,807.20807,938.55927Q804.17316,945.6888,802.60443,953.9682Q800.9643,964.5689,801.0761,967.0334Q800.84174,971.6043,800.9738,976.46295"/> </g> <g style="fill:rgb(255,0,0); fill-opacity:1.0; stroke-linejoin: miter"> <path d="M808.8006,975.1672L808.7719,979.8991Q809.0745,992.24664,813.33405,1001.721Q815.21576,1004.9904,816.0097,1006.0026Q817.0269,1007.4062,817.85065,1008.1165Q821.43134,1010.91986,824.4168,1010.57465Q831.72565,1009.4124,836.3167,998.748Q838.6026,992.97675,839.8819,986.59235Q841.02264,979.66034,840.98615,974.5236Q841.13885,960.5347,836.71466,950.6584Q832.2695,940.992,825.85944,940.936Q824.84125,940.9163,822.997,941.43976Q821.5114,942.1484,819.54425,943.6778Q817.5711,945.2265,814.76263,949.97565Q812.8189,953.50507,810.9478,960.11957Q809.9351,964.46954,809.4046,967.8276Q808.9494,971.69464,808.8006,975.1672"/> </g> <g style="fill:rgb(125,139,150); fill-opacity:1.0; stroke-linejoin: miter"> <path d="M805.8348,840.28314L805.8348,840.284L805.8348,840.28314L805.8348,840.28485L805.8348,840.284L805.8348,840.28314L805.8348,840.28485Q805.8348,840.28314,805.8348,840.28314"/> </g> </g> </svg>