<svg width="434" height="218" viewBox="0 0 434 218" fill="none" xmlns="http://www.w3.org/2000/svg">
<path d="M433.798 217.505C433.798 160.051 410.975 104.951 370.349 64.3251C329.724 23.6993 274.623 0.875984 217.17 0.875979C159.716 0.875975 104.616 23.6993 63.9901 64.325C23.3643 104.951 0.541024 160.051 0.541016 217.505L92.2715 217.505C92.2715 184.38 105.43 152.611 128.853 129.188C152.276 105.765 184.045 92.6064 217.17 92.6064C250.295 92.6064 282.063 105.765 305.486 129.188C328.909 152.611 342.068 184.38 342.068 217.505H433.798Z" fill="#0F528B"/>
<path d="M0.541016 217.505C0.541016 179.729 10.4193 142.61 29.1955 109.831C47.9717 77.0516 74.9932 49.7523 107.578 30.6418C140.164 11.5312 177.18 1.27374 214.954 0.887314C252.727 0.500885 289.946 9.9989 322.915 28.4388L278.138 108.498C259.129 97.8663 237.671 92.3902 215.892 92.613C194.113 92.8358 172.772 98.7497 153.984 109.768C135.197 120.786 119.618 136.526 108.792 155.425C97.9668 174.324 92.2715 195.725 92.2715 217.505L0.541016 217.505Z" fill="#2D96D7"/>
</svg>
